<svg xmlns="http://www.w3.org/2000/svg" width="1920" height="120" viewBox="0 0 1920 120">
  <!-- PLACEHOLDER: reemplazar por imagen real de Eric / del bar en preproducción -->
  <rect width="1920" height="120" fill="none"/>
  <rect x="0" y="32.5" width="8" height="55" fill="#E8313F" opacity="0.5"/><rect x="16" y="16.359487954760738" width="8" height="87.28102409047852" fill="#E8313F" opacity="0.5"/><rect x="32" y="10.009593931566137" width="8" height="99.98081213686773" fill="#E8313F" opacity="0.5"/><rect x="48" y="17.302078437599114" width="8" height="85.39584312480177" fill="#E8313F" opacity="0.5"/><rect x="64" y="33.81341822712055" width="8" height="52.3731635457589" fill="#E8313F" opacity="0.5"/><rect x="80" y="49.52805614442838" width="8" height="20.943887711143233" fill="#E8313F" opacity="0.5"/><rect x="96" y="54.913703698806415" width="8" height="10.172592602387175" fill="#E8313F" opacity="0.5"/><rect x="112" y="46.70349935212722" width="8" height="26.593001295745562" fill="#E8313F" opacity="0.5"/><rect x="128" y="29.877642890863893" width="8" height="60.244714218272215" fill="#E8313F" opacity="0.5"/><rect x="144" y="14.64247306339405" width="8" height="90.7150538732119" fill="#E8313F" opacity="0.5"/><rect x="160" y="10.239439450973904" width="8" height="99.52112109805219" fill="#E8313F" opacity="0.5"/><rect x="176" y="19.339363159935367" width="8" height="81.32127368012927" fill="#E8313F" opacity="0.5"/><rect x="192" y="36.42235257751708" width="8" height="47.15529484496584" fill="#E8313F" opacity="0.5"/><rect x="208" y="51.12609555442721" width="8" height="17.74780889114558" fill="#E8313F" opacity="0.5"/><rect x="224" y="54.531498905904634" width="8" height="10.937002188190737" fill="#E8313F" opacity="0.5"/><rect x="240" y="44.572890655009786" width="8" height="30.854218689980428" fill="#E8313F" opacity="0.5"/><rect x="256" y="27.291028935215373" width="8" height="65.41794212956925" fill="#E8313F" opacity="0.5"/><rect x="272" y="13.168859165728826" width="8" height="93.66228166854235" fill="#E8313F" opacity="0.5"/><rect x="288" y="10.772700027641257" width="8" height="98.45459994471749" fill="#E8313F" opacity="0.5"/><rect x="304" y="21.556029500789542" width="8" height="76.88794099842092" fill="#E8313F" opacity="0.5"/><rect x="320" y="38.97782462496397" width="8" height="42.04435075007206" fill="#E8313F" opacity="0.5"/><rect x="336" y="52.47025825558385" width="8" height="15.059483488832294" fill="#E8313F" opacity="0.5"/><rect x="352" y="53.84900120315779" width="8" height="12.30199759368442" fill="#E8313F" opacity="0.5"/><rect x="368" y="42.2777264966176" width="8" height="35.44454700676479" fill="#E8313F" opacity="0.5"/><rect x="384" y="24.77541410155228" width="8" height="70.44917179689544" fill="#E8313F" opacity="0.5"/><rect x="400" y="11.958731858628376" width="8" height="96.08253628274325" fill="#E8313F" opacity="0.5"/><rect x="416" y="11.602107233262096" width="8" height="96.79578553347581" fill="#E8313F" opacity="0.5"/><rect x="432" y="23.921863937763845" width="8" height="72.15627212447231" fill="#E8313F" opacity="0.5"/><rect x="448" y="41.445002870232315" width="8" height="37.10999425953537" fill="#E8313F" opacity="0.5"/><rect x="464" y="53.542223091877155" width="8" height="12.91555381624569" fill="#E8313F" opacity="0.5"/><rect x="480" y="52.875513145149036" width="8" height="14.248973709701929" fill="#E8313F" opacity="0.5"/><rect x="496" y="39.84929033735625" width="8" height="40.3014193252875" fill="#E8313F" opacity="0.5"/><rect x="512" y="22.365086628803738" width="8" height="75.26982674239252" fill="#E8313F" opacity="0.5"/><rect x="528" y="11.02858537391429" width="8" height="97.94282925217142" fill="#E8313F" opacity="0.5"/><rect x="544" y="12.71635611285874" width="8" height="94.56728777428252" fill="#E8313F" opacity="0.5"/><rect x="560" y="26.404619763072944" width="8" height="67.19076047385411" fill="#E8313F" opacity="0.5"/><rect x="576" y="43.79025927296292" width="8" height="32.41948145407416" fill="#E8313F" opacity="0.5"/><rect x="592" y="54.32737900841167" width="8" height="11.34524198317666" fill="#E8313F" opacity="0.5"/><rect x="608" y="51.62430353228484" width="8" height="16.75139293543032" fill="#E8313F" opacity="0.5"/><rect x="624" y="37.3206821566574" width="8" height="45.35863568668521" fill="#E8313F" opacity="0.5"/><rect x="640" y="20.09289967206196" width="8" height="79.81420065587608" fill="#E8313F" opacity="0.5"/><rect x="656" y="10.391097759306831" width="8" height="99.21780448138634" fill="#E8313F" opacity="0.5"/><rect x="672" y="14.100259273155054" width="8" height="91.79948145368989" fill="#E8313F" opacity="0.5"/><rect x="688" y="28.97045661141078" width="8" height="62.05908677717844" fill="#E8313F" opacity="0.5"/><rect x="704" y="45.981627607320966" width="8" height="28.036744785358064" fill="#E8313F" opacity="0.5"/><rect x="720" y="54.815024202470106" width="8" height="10.36995159505979" fill="#E8313F" opacity="0.5"/><rect x="736" y="50.11242655488962" width="8" height="19.775146890220753" fill="#E8313F" opacity="0.5"/><rect x="752" y="34.72636729488151" width="8" height="50.547265410236975" fill="#E8313F" opacity="0.5"/><rect x="768" y="17.989823508740365" width="8" height="84.02035298251927" fill="#E8313F" opacity="0.5"/><rect x="784" y="10.054958074574387" width="8" height="99.89008385085123" fill="#E8313F" opacity="0.5"/><rect x="800" y="15.734953889214651" width="8" height="88.5300922215707" fill="#E8313F" opacity="0.5"/><rect x="816" y="31.5844017096282" width="8" height="56.8311965807436" fill="#E8313F" opacity="0.5"/><rect x="832" y="47.98923916684758" width="8" height="24.02152166630483" fill="#E8313F" opacity="0.5"/><rect x="848" y="54.99851199082308" width="8" height="10.00297601835383" fill="#E8313F" opacity="0.5"/><rect x="864" y="48.36048934182058" width="8" height="23.279021316358836" fill="#E8313F" opacity="0.5"/><rect x="880" y="32.10170668512819" width="8" height="55.79658662974361" fill="#E8313F" opacity="0.5"/><rect x="896" y="16.084523408660687" width="8" height="87.83095318267863" fill="#E8313F" opacity="0.5"/><rect x="912" y="10.024747958237022" width="8" height="99.95050408352596" fill="#E8313F" opacity="0.5"/><rect x="928" y="17.59815880780966" width="8" height="84.80368238438068" fill="#E8313F" opacity="0.5"/><rect x="944" y="34.210826561312956" width="8" height="51.57834687737409" fill="#E8313F" opacity="0.5"/><rect x="960" y="49.78572987978251" width="8" height="20.42854024043499" fill="#E8313F" opacity="0.5"/><rect x="976" y="54.87534140510158" width="8" height="10.249317189796841" fill="#E8313F" opacity="0.5"/><rect x="992" y="46.39237108195289" width="8" height="27.21525783609422" fill="#E8313F" opacity="0.5"/><rect x="1008" y="29.482474877972557" width="8" height="61.03505024405489" fill="#E8313F" opacity="0.5"/><rect x="1024" y="14.402968921766934" width="8" height="91.19406215646613" fill="#E8313F" opacity="0.5"/><rect x="1040" y="10.30087917908908" width="8" height="99.39824164182184" fill="#E8313F" opacity="0.5"/><rect x="1056" y="19.664478243159124" width="8" height="80.67104351368175" fill="#E8313F" opacity="0.5"/><rect x="1072" y="36.813932568985734" width="8" height="46.37213486202854" fill="#E8313F" opacity="0.5"/><rect x="1088" y="51.3466132858082" width="8" height="17.306773428383586" fill="#E8313F" opacity="0.5"/><rect x="1104" y="54.447191280402194" width="8" height="11.105617439195607" fill="#E8313F" opacity="0.5"/><rect x="1120" y="44.234897546955516" width="8" height="31.530204906088965" fill="#E8313F" opacity="0.5"/><rect x="1136" y="26.904372428528696" width="8" height="66.19125514294261" fill="#E8313F" opacity="0.5"/><rect x="1152" y="12.968079908940517" width="8" height="94.06384018211897" fill="#E8313F" opacity="0.5"/><rect x="1168" y="10.879588023723585" width="8" height="98.24082395255283" fill="#E8313F" opacity="0.5"/><rect x="1184" y="21.905747925616296" width="8" height="76.18850414876741" fill="#E8313F" opacity="0.5"/><rect x="1200" y="39.358238974799875" width="8" height="41.28352205040025" fill="#E8313F" opacity="0.5"/><rect x="1216" y="52.650614290482395" width="8" height="14.698771419035207" fill="#E8313F" opacity="0.5"/><rect x="1232" y="53.71989737249197" width="8" height="12.560205255016063" fill="#E8313F" opacity="0.5"/><rect x="1248" y="41.91747545166443" width="8" height="36.16504909667115" fill="#E8313F" opacity="0.5"/><rect x="1264" y="24.402539292081784" width="8" height="71.19492141583643" fill="#E8313F" opacity="0.5"/><rect x="1280" y="11.79941414057221" width="8" height="96.40117171885558" fill="#E8313F" opacity="0.5"/><rect x="1296" y="11.752986596557328" width="8" height="96.49402680688534" fill="#E8313F" opacity="0.5"/><rect x="1312" y="24.291418985239844" width="8" height="71.41716202952031" fill="#E8313F" opacity="0.5"/><rect x="1328" y="41.80906646903619" width="8" height="36.38186706192762" fill="#E8313F" opacity="0.5"/><rect x="1344" y="53.67995914823267" width="8" height="12.640081703534657" fill="#E8313F" opacity="0.5"/><rect x="1360" y="52.703372815509056" width="8" height="14.593254368981892" fill="#E8313F" opacity="0.5"/><rect x="1376" y="39.47169163578199" width="8" height="41.056616728436026" fill="#E8313F" opacity="0.5"/><rect x="1392" y="22.011075860788345" width="8" height="75.97784827842331" fill="#E8313F" opacity="0.5"/><rect x="1408" y="10.912900720973866" width="8" height="98.17419855805227" fill="#E8313F" opacity="0.5"/><rect x="1424" y="12.909170333129843" width="8" height="94.18165933374031" fill="#E8313F" opacity="0.5"/><rect x="1440" y="26.788974337854185" width="8" height="66.42205132429163" fill="#E8313F" opacity="0.5"/><rect x="1456" y="44.13300987472848" width="8" height="31.73398025054304" fill="#E8313F" opacity="0.5"/><rect x="1472" y="54.420617721396255" width="8" height="11.158764557207487" fill="#E8313F" opacity="0.5"/><rect x="1488" y="51.41147300433363" width="8" height="17.17705399133275" fill="#E8313F" opacity="0.5"/><rect x="1504" y="36.930882530117884" width="8" height="46.13823493976423" fill="#E8313F" opacity="0.5"/><rect x="1520" y="19.76257816979094" width="8" height="80.47484366041812" fill="#E8313F" opacity="0.5"/><rect x="1536" y="10.320622972098604" width="8" height="99.35875405580279" fill="#E8313F" opacity="0.5"/><rect x="1552" y="14.332380261250641" width="8" height="91.33523947749872" fill="#E8313F" opacity="0.5"/><rect x="1568" y="29.364371898191973" width="8" height="61.271256203616055" fill="#E8313F" opacity="0.5"/><rect x="1584" y="46.298393465655" width="8" height="27.40321306868999" fill="#E8313F" opacity="0.5"/><rect x="1600" y="54.86249471327594" width="8" height="10.275010573448116" fill="#E8313F" opacity="0.5"/><rect x="1616" y="49.86180674330461" width="8" height="20.276386513390776" fill="#E8313F" opacity="0.5"/><rect x="1632" y="34.329679775622466" width="8" height="51.340640448755074" fill="#E8313F" opacity="0.5"/><rect x="1648" y="17.687693607961364" width="8" height="84.62461278407727" fill="#E8313F" opacity="0.5"/><rect x="1664" y="10.03065373589903" width="8" height="99.93869252820194" fill="#E8313F" opacity="0.5"/><rect x="1680" y="16.003217798350924" width="8" height="87.99356440329815" fill="#E8313F" opacity="0.5"/><rect x="1696" y="31.98250857904559" width="8" height="56.03498284190882" fill="#E8313F" opacity="0.5"/><rect x="1712" y="48.27570271163179" width="8" height="23.448594576736426" fill="#E8313F" opacity="0.5"/><rect x="1728" y="54.999567268674745" width="8" height="10.000865462650511" fill="#E8313F" opacity="0.5"/><rect x="1744" y="48.075496235355445" width="8" height="23.849007529289104" fill="#E8313F" opacity="0.5"/><rect x="1760" y="31.703538188492637" width="8" height="56.59292362301473" fill="#E8313F" opacity="0.5"/><rect x="1776" y="15.814703189012377" width="8" height="88.37059362197525" fill="#E8313F" opacity="0.5"/><rect x="1792" y="10.04694534017974" width="8" height="99.90610931964052" fill="#E8313F" opacity="0.5"/><rect x="1808" y="17.8989091573167" width="8" height="84.2021816853666" fill="#E8313F" opacity="0.5"/><rect x="1824" y="34.60769875205038" width="8" height="50.784602495899236" fill="#E8313F" opacity="0.5"/><rect x="1840" y="50.037986566355606" width="8" height="19.924026867288788" fill="#E8313F" opacity="0.5"/><rect x="1856" y="54.829967066390466" width="8" height="10.340065867219073" fill="#E8313F" opacity="0.5"/><rect x="1872" y="46.076889182955235" width="8" height="27.846221634089527" fill="#E8313F" opacity="0.5"/><rect x="1888" y="29.08825250526533" width="8" height="61.82349498946934" fill="#E8313F" opacity="0.5"/><rect x="1904" y="14.169136076684694" width="8" height="91.66172784663061" fill="#E8313F" opacity="0.5"/>
</svg>
