<svg xmlns="http://www.w3.org/2000/svg" width="1920" height="1080" viewBox="0 0 1920 1080">
  <!-- PLACEHOLDER: reemplazar por imagen real de Eric / del bar en preproducción -->
  <defs><radialGradient id="hv" cx="35%" cy="45%" r="80%"><stop offset="0%" stop-color="#2a2a2a"/><stop offset="100%" stop-color="#1a1a1a"/></radialGradient></defs>
  <rect width="1920" height="1080" fill="url(#hv)"/>
  <rect x="12" y="12" width="216" height="192" fill="#2a2a2a" fill-opacity="0.5" stroke="#8B0000" stroke-opacity="0.12" stroke-width="2"/><rect x="252" y="12" width="216" height="192" fill="#2a2a2a" fill-opacity="0.5" stroke="#FFD700" stroke-opacity="0.12" stroke-width="2"/><rect x="492" y="12" width="216" height="192" fill="#2a2a2a" fill-opacity="0.5" stroke="#FFD700" stroke-opacity="0.12" stroke-width="2"/><rect x="732" y="12" width="216" height="192" fill="#2a2a2a" fill-opacity="0.5" stroke="#FFD700" stroke-opacity="0.12" stroke-width="2"/><rect x="972" y="12" width="216" height="192" fill="#2a2a2a" fill-opacity="0.5" stroke="#FFD700" stroke-opacity="0.12" stroke-width="2"/><rect x="1212" y="12" width="216" height="192" fill="#2a2a2a" fill-opacity="0.5" stroke="#8B0000" stroke-opacity="0.12" stroke-width="2"/><rect x="1452" y="12" width="216" height="192" fill="#2a2a2a" fill-opacity="0.5" stroke="#FFD700" stroke-opacity="0.12" stroke-width="2"/><rect x="1692" y="12" width="216" height="192" fill="#2a2a2a" fill-opacity="0.5" stroke="#FFD700" stroke-opacity="0.12" stroke-width="2"/><rect x="12" y="228" width="216" height="192" fill="#2a2a2a" fill-opacity="0.5" stroke="#FFD700" stroke-opacity="0.12" stroke-width="2"/><rect x="252" y="228" width="216" height="192" fill="#2a2a2a" fill-opacity="0.5" stroke="#FFD700" stroke-opacity="0.12" stroke-width="2"/><rect x="492" y="228" width="216" height="192" fill="#2a2a2a" fill-opacity="0.5" stroke="#8B0000" stroke-opacity="0.12" stroke-width="2"/><rect x="732" y="228" width="216" height="192" fill="#2a2a2a" fill-opacity="0.5" stroke="#FFD700" stroke-opacity="0.12" stroke-width="2"/><rect x="972" y="228" width="216" height="192" fill="#2a2a2a" fill-opacity="0.5" stroke="#FFD700" stroke-opacity="0.12" stroke-width="2"/><rect x="1212" y="228" width="216" height="192" fill="#2a2a2a" fill-opacity="0.5" stroke="#FFD700" stroke-opacity="0.12" stroke-width="2"/><rect x="1452" y="228" width="216" height="192" fill="#2a2a2a" fill-opacity="0.5" stroke="#FFD700" stroke-opacity="0.12" stroke-width="2"/><rect x="1692" y="228" width="216" height="192" fill="#2a2a2a" fill-opacity="0.5" stroke="#8B0000" stroke-opacity="0.12" stroke-width="2"/><rect x="12" y="444" width="216" height="192" fill="#2a2a2a" fill-opacity="0.5" stroke="#FFD700" stroke-opacity="0.12" stroke-width="2"/><rect x="252" y="444" width="216" height="192" fill="#2a2a2a" fill-opacity="0.5" stroke="#FFD700" stroke-opacity="0.12" stroke-width="2"/><rect x="492" y="444" width="216" height="192" fill="#2a2a2a" fill-opacity="0.5" stroke="#FFD700" stroke-opacity="0.12" stroke-width="2"/><rect x="732" y="444" width="216" height="192" fill="#2a2a2a" fill-opacity="0.5" stroke="#FFD700" stroke-opacity="0.12" stroke-width="2"/><rect x="972" y="444" width="216" height="192" fill="#2a2a2a" fill-opacity="0.5" stroke="#8B0000" stroke-opacity="0.12" stroke-width="2"/><rect x="1212" y="444" width="216" height="192" fill="#2a2a2a" fill-opacity="0.5" stroke="#FFD700" stroke-opacity="0.12" stroke-width="2"/><rect x="1452" y="444" width="216" height="192" fill="#2a2a2a" fill-opacity="0.5" stroke="#FFD700" stroke-opacity="0.12" stroke-width="2"/><rect x="1692" y="444" width="216" height="192" fill="#2a2a2a" fill-opacity="0.5" stroke="#FFD700" stroke-opacity="0.12" stroke-width="2"/><rect x="12" y="660" width="216" height="192" fill="#2a2a2a" fill-opacity="0.5" stroke="#FFD700" stroke-opacity="0.12" stroke-width="2"/><rect x="252" y="660" width="216" height="192" fill="#2a2a2a" fill-opacity="0.5" stroke="#8B0000" stroke-opacity="0.12" stroke-width="2"/><rect x="492" y="660" width="216" height="192" fill="#2a2a2a" fill-opacity="0.5" stroke="#FFD700" stroke-opacity="0.12" stroke-width="2"/><rect x="732" y="660" width="216" height="192" fill="#2a2a2a" fill-opacity="0.5" stroke="#FFD700" stroke-opacity="0.12" stroke-width="2"/><rect x="972" y="660" width="216" height="192" fill="#2a2a2a" fill-opacity="0.5" stroke="#FFD700" stroke-opacity="0.12" stroke-width="2"/><rect x="1212" y="660" width="216" height="192" fill="#2a2a2a" fill-opacity="0.5" stroke="#FFD700" stroke-opacity="0.12" stroke-width="2"/><rect x="1452" y="660" width="216" height="192" fill="#2a2a2a" fill-opacity="0.5" stroke="#8B0000" stroke-opacity="0.12" stroke-width="2"/><rect x="1692" y="660" width="216" height="192" fill="#2a2a2a" fill-opacity="0.5" stroke="#FFD700" stroke-opacity="0.12" stroke-width="2"/><rect x="12" y="876" width="216" height="192" fill="#2a2a2a" fill-opacity="0.5" stroke="#FFD700" stroke-opacity="0.12" stroke-width="2"/><rect x="252" y="876" width="216" height="192" fill="#2a2a2a" fill-opacity="0.5" stroke="#FFD700" stroke-opacity="0.12" stroke-width="2"/><rect x="492" y="876" width="216" height="192" fill="#2a2a2a" fill-opacity="0.5" stroke="#FFD700" stroke-opacity="0.12" stroke-width="2"/><rect x="732" y="876" width="216" height="192" fill="#2a2a2a" fill-opacity="0.5" stroke="#8B0000" stroke-opacity="0.12" stroke-width="2"/><rect x="972" y="876" width="216" height="192" fill="#2a2a2a" fill-opacity="0.5" stroke="#FFD700" stroke-opacity="0.12" stroke-width="2"/><rect x="1212" y="876" width="216" height="192" fill="#2a2a2a" fill-opacity="0.5" stroke="#FFD700" stroke-opacity="0.12" stroke-width="2"/><rect x="1452" y="876" width="216" height="192" fill="#2a2a2a" fill-opacity="0.5" stroke="#FFD700" stroke-opacity="0.12" stroke-width="2"/><rect x="1692" y="876" width="216" height="192" fill="#2a2a2a" fill-opacity="0.5" stroke="#FFD700" stroke-opacity="0.12" stroke-width="2"/>
  <rect width="1920" height="1080" fill="#1a1a1a" opacity="0.55"/>
</svg>
