<svg xmlns="http://www.w3.org/2000/svg" width="1200" height="630" viewBox="0 0 1200 630" role="img" aria-label="El Bar de Eric">
  <!-- PLACEHOLDER: reemplazar por imagen real de Eric / del bar en preproducción -->
  <defs><radialGradient id="ogv" cx="30%" cy="40%" r="90%"><stop offset="0%" stop-color="#2a2a2a"/><stop offset="100%" stop-color="#1a1a1a"/></radialGradient></defs>
  <rect width="1200" height="630" fill="url(#ogv)"/>
  <rect x="16" y="16" width="139" height="125" fill="#2a2a2a" fill-opacity="0.4" stroke="#FFD700" stroke-opacity="0.1" stroke-width="2"/><rect x="187" y="16" width="139" height="125" fill="#2a2a2a" fill-opacity="0.4" stroke="#FFD700" stroke-opacity="0.1" stroke-width="2"/><rect x="358" y="16" width="139" height="125" fill="#2a2a2a" fill-opacity="0.4" stroke="#FFD700" stroke-opacity="0.1" stroke-width="2"/><rect x="529" y="16" width="139" height="125" fill="#2a2a2a" fill-opacity="0.4" stroke="#FFD700" stroke-opacity="0.1" stroke-width="2"/><rect x="700" y="16" width="139" height="125" fill="#2a2a2a" fill-opacity="0.4" stroke="#FFD700" stroke-opacity="0.1" stroke-width="2"/><rect x="871" y="16" width="139" height="125" fill="#2a2a2a" fill-opacity="0.4" stroke="#FFD700" stroke-opacity="0.1" stroke-width="2"/><rect x="1042" y="16" width="139" height="125" fill="#2a2a2a" fill-opacity="0.4" stroke="#FFD700" stroke-opacity="0.1" stroke-width="2"/><rect x="16" y="173" width="139" height="125" fill="#2a2a2a" fill-opacity="0.4" stroke="#FFD700" stroke-opacity="0.1" stroke-width="2"/><rect x="187" y="173" width="139" height="125" fill="#2a2a2a" fill-opacity="0.4" stroke="#FFD700" stroke-opacity="0.1" stroke-width="2"/><rect x="358" y="173" width="139" height="125" fill="#2a2a2a" fill-opacity="0.4" stroke="#FFD700" stroke-opacity="0.1" stroke-width="2"/><rect x="529" y="173" width="139" height="125" fill="#2a2a2a" fill-opacity="0.4" stroke="#FFD700" stroke-opacity="0.1" stroke-width="2"/><rect x="700" y="173" width="139" height="125" fill="#2a2a2a" fill-opacity="0.4" stroke="#FFD700" stroke-opacity="0.1" stroke-width="2"/><rect x="871" y="173" width="139" height="125" fill="#2a2a2a" fill-opacity="0.4" stroke="#FFD700" stroke-opacity="0.1" stroke-width="2"/><rect x="1042" y="173" width="139" height="125" fill="#2a2a2a" fill-opacity="0.4" stroke="#FFD700" stroke-opacity="0.1" stroke-width="2"/><rect x="16" y="330" width="139" height="125" fill="#2a2a2a" fill-opacity="0.4" stroke="#FFD700" stroke-opacity="0.1" stroke-width="2"/><rect x="187" y="330" width="139" height="125" fill="#2a2a2a" fill-opacity="0.4" stroke="#FFD700" stroke-opacity="0.1" stroke-width="2"/><rect x="358" y="330" width="139" height="125" fill="#2a2a2a" fill-opacity="0.4" stroke="#FFD700" stroke-opacity="0.1" stroke-width="2"/><rect x="529" y="330" width="139" height="125" fill="#2a2a2a" fill-opacity="0.4" stroke="#FFD700" stroke-opacity="0.1" stroke-width="2"/><rect x="700" y="330" width="139" height="125" fill="#2a2a2a" fill-opacity="0.4" stroke="#FFD700" stroke-opacity="0.1" stroke-width="2"/><rect x="871" y="330" width="139" height="125" fill="#2a2a2a" fill-opacity="0.4" stroke="#FFD700" stroke-opacity="0.1" stroke-width="2"/><rect x="1042" y="330" width="139" height="125" fill="#2a2a2a" fill-opacity="0.4" stroke="#FFD700" stroke-opacity="0.1" stroke-width="2"/><rect x="16" y="487" width="139" height="125" fill="#2a2a2a" fill-opacity="0.4" stroke="#FFD700" stroke-opacity="0.1" stroke-width="2"/><rect x="187" y="487" width="139" height="125" fill="#2a2a2a" fill-opacity="0.4" stroke="#FFD700" stroke-opacity="0.1" stroke-width="2"/><rect x="358" y="487" width="139" height="125" fill="#2a2a2a" fill-opacity="0.4" stroke="#FFD700" stroke-opacity="0.1" stroke-width="2"/><rect x="529" y="487" width="139" height="125" fill="#2a2a2a" fill-opacity="0.4" stroke="#FFD700" stroke-opacity="0.1" stroke-width="2"/><rect x="700" y="487" width="139" height="125" fill="#2a2a2a" fill-opacity="0.4" stroke="#FFD700" stroke-opacity="0.1" stroke-width="2"/><rect x="871" y="487" width="139" height="125" fill="#2a2a2a" fill-opacity="0.4" stroke="#FFD700" stroke-opacity="0.1" stroke-width="2"/><rect x="1042" y="487" width="139" height="125" fill="#2a2a2a" fill-opacity="0.4" stroke="#FFD700" stroke-opacity="0.1" stroke-width="2"/>
  <rect width="1200" height="630" fill="#1a1a1a" opacity="0.6"/>
  <text x="80" y="300" font-family="Georgia, serif" font-weight="700" font-size="84" fill="#FFD700">El Bar de Eric</text>
  <text x="84" y="360" font-family="Inter, Arial, sans-serif" font-size="34" fill="#ededed">Donde la música se hace tapa</text>
  <rect x="84" y="392" width="160" height="8" fill="#8B0000"/>
  <text x="84" y="450" font-family="Inter, Arial, sans-serif" font-size="24" fill="#9CA3AF">Bar museo del rock · Granada · desde 2013</text>
</svg>
